<mxfile host="Electron" agent="Mozilla/5.0 (Windows NT 10.0; Win64; x64) AppleWebKit/537.36 (KHTML, like Gecko) draw.io/25.0.2 Chrome/128.0.6613.186 Electron/32.2.5 Safari/537.36" version="25.0.2">
  <diagram name="Page-1" id="UnTIZeBMVxwomK0J2_nH">
    <mxGraphModel dx="1434" dy="836" grid="1" gridSize="10" guides="1" tooltips="1" connect="1" arrows="1" fold="1" page="1" pageScale="1" pageWidth="827" pageHeight="1169" math="0" shadow="0">
      <root>
        <mxCell id="0" />
        <mxCell id="1" parent="0" />
        <mxCell id="D7EhTNVWj45SHCvEhxK5-1" value="Web browser" style="html=1;dropTarget=0;whiteSpace=wrap;verticalAlign=top;align=center;" vertex="1" parent="1">
          <mxGeometry x="160" y="70" width="160" height="90" as="geometry" />
        </mxCell>
        <mxCell id="D7EhTNVWj45SHCvEhxK5-2" value="" style="shape=module;jettyWidth=8;jettyHeight=4;" vertex="1" parent="D7EhTNVWj45SHCvEhxK5-1">
          <mxGeometry x="1" width="20" height="20" relative="1" as="geometry">
            <mxPoint x="-27" y="7" as="offset" />
          </mxGeometry>
        </mxCell>
        <mxCell id="D7EhTNVWj45SHCvEhxK5-3" value="Web application" style="html=1;dropTarget=0;whiteSpace=wrap;" vertex="1" parent="1">
          <mxGeometry x="165" y="110" width="150" height="40" as="geometry" />
        </mxCell>
        <mxCell id="D7EhTNVWj45SHCvEhxK5-4" value="" style="shape=module;jettyWidth=8;jettyHeight=4;" vertex="1" parent="D7EhTNVWj45SHCvEhxK5-3">
          <mxGeometry x="1" width="20" height="20" relative="1" as="geometry">
            <mxPoint x="-27" y="7" as="offset" />
          </mxGeometry>
        </mxCell>
        <mxCell id="D7EhTNVWj45SHCvEhxK5-6" value="Reverse proxy" style="html=1;dropTarget=0;whiteSpace=wrap;" vertex="1" parent="1">
          <mxGeometry x="160" y="220" width="160" height="60" as="geometry" />
        </mxCell>
        <mxCell id="D7EhTNVWj45SHCvEhxK5-7" value="" style="shape=module;jettyWidth=8;jettyHeight=4;" vertex="1" parent="D7EhTNVWj45SHCvEhxK5-6">
          <mxGeometry x="1" width="20" height="20" relative="1" as="geometry">
            <mxPoint x="-27" y="7" as="offset" />
          </mxGeometry>
        </mxCell>
        <mxCell id="D7EhTNVWj45SHCvEhxK5-8" value="Back-end" style="html=1;dropTarget=0;whiteSpace=wrap;" vertex="1" parent="1">
          <mxGeometry x="160" y="340" width="160" height="60" as="geometry" />
        </mxCell>
        <mxCell id="D7EhTNVWj45SHCvEhxK5-9" value="" style="shape=module;jettyWidth=8;jettyHeight=4;" vertex="1" parent="D7EhTNVWj45SHCvEhxK5-8">
          <mxGeometry x="1" width="20" height="20" relative="1" as="geometry">
            <mxPoint x="-27" y="7" as="offset" />
          </mxGeometry>
        </mxCell>
        <mxCell id="D7EhTNVWj45SHCvEhxK5-10" value="Database" style="html=1;dropTarget=0;whiteSpace=wrap;" vertex="1" parent="1">
          <mxGeometry x="160" y="460" width="160" height="60" as="geometry" />
        </mxCell>
        <mxCell id="D7EhTNVWj45SHCvEhxK5-11" value="" style="shape=module;jettyWidth=8;jettyHeight=4;" vertex="1" parent="D7EhTNVWj45SHCvEhxK5-10">
          <mxGeometry x="1" width="20" height="20" relative="1" as="geometry">
            <mxPoint x="-27" y="7" as="offset" />
          </mxGeometry>
        </mxCell>
        <mxCell id="D7EhTNVWj45SHCvEhxK5-13" value="" style="rounded=0;orthogonalLoop=1;jettySize=auto;html=1;endArrow=halfCircle;endFill=0;endSize=6;strokeWidth=1;sketch=0;exitX=0.5;exitY=1;exitDx=0;exitDy=0;" edge="1" target="D7EhTNVWj45SHCvEhxK5-15" parent="1" source="D7EhTNVWj45SHCvEhxK5-8">
          <mxGeometry relative="1" as="geometry">
            <mxPoint x="430" y="325" as="sourcePoint" />
          </mxGeometry>
        </mxCell>
        <mxCell id="D7EhTNVWj45SHCvEhxK5-14" value="" style="rounded=0;orthogonalLoop=1;jettySize=auto;html=1;endArrow=oval;endFill=0;sketch=0;sourcePerimeterSpacing=0;targetPerimeterSpacing=0;endSize=10;exitX=0.5;exitY=0;exitDx=0;exitDy=0;" edge="1" target="D7EhTNVWj45SHCvEhxK5-15" parent="1" source="D7EhTNVWj45SHCvEhxK5-10">
          <mxGeometry relative="1" as="geometry">
            <mxPoint x="390" y="325" as="sourcePoint" />
          </mxGeometry>
        </mxCell>
        <mxCell id="D7EhTNVWj45SHCvEhxK5-15" value="SQL" style="ellipse;whiteSpace=wrap;html=1;align=left;aspect=fixed;fillColor=none;strokeColor=none;resizable=0;perimeter=centerPerimeter;rotatable=0;allowArrows=0;points=[];outlineConnect=1;labelPosition=right;verticalLabelPosition=middle;verticalAlign=middle;" vertex="1" parent="1">
          <mxGeometry x="235" y="430" width="10" height="10" as="geometry" />
        </mxCell>
        <mxCell id="D7EhTNVWj45SHCvEhxK5-38" value="" style="rounded=0;orthogonalLoop=1;jettySize=auto;html=1;endArrow=halfCircle;endFill=0;endSize=6;strokeWidth=1;sketch=0;exitX=0.5;exitY=1;exitDx=0;exitDy=0;" edge="1" parent="1">
          <mxGeometry relative="1" as="geometry">
            <mxPoint x="200" y="160" as="sourcePoint" />
            <mxPoint x="200" y="195" as="targetPoint" />
          </mxGeometry>
        </mxCell>
        <mxCell id="D7EhTNVWj45SHCvEhxK5-39" value="static pages" style="rounded=0;orthogonalLoop=1;jettySize=auto;html=1;endArrow=oval;endFill=0;sketch=0;sourcePerimeterSpacing=0;targetPerimeterSpacing=0;endSize=10;exitX=0.5;exitY=0;exitDx=0;exitDy=0;align=right;" edge="1" parent="1">
          <mxGeometry relative="1" as="geometry">
            <mxPoint x="200" y="220" as="sourcePoint" />
            <mxPoint x="200" y="195" as="targetPoint" />
          </mxGeometry>
        </mxCell>
        <mxCell id="D7EhTNVWj45SHCvEhxK5-40" value="" style="rounded=0;orthogonalLoop=1;jettySize=auto;html=1;endArrow=halfCircle;endFill=0;endSize=6;strokeWidth=1;sketch=0;exitX=0.75;exitY=1;exitDx=0;exitDy=0;" edge="1" parent="1" source="D7EhTNVWj45SHCvEhxK5-3">
          <mxGeometry relative="1" as="geometry">
            <mxPoint x="280" y="160" as="sourcePoint" />
            <mxPoint x="280" y="195" as="targetPoint" />
          </mxGeometry>
        </mxCell>
        <mxCell id="D7EhTNVWj45SHCvEhxK5-41" value="APIs" style="rounded=0;orthogonalLoop=1;jettySize=auto;html=1;endArrow=oval;endFill=0;sketch=0;sourcePerimeterSpacing=0;targetPerimeterSpacing=0;endSize=10;exitX=0.5;exitY=0;exitDx=0;exitDy=0;align=left;" edge="1" parent="1">
          <mxGeometry relative="1" as="geometry">
            <mxPoint x="280" y="220" as="sourcePoint" />
            <mxPoint x="280" y="195" as="targetPoint" />
          </mxGeometry>
        </mxCell>
        <mxCell id="D7EhTNVWj45SHCvEhxK5-42" value="" style="rounded=0;orthogonalLoop=1;jettySize=auto;html=1;endArrow=halfCircle;endFill=0;endSize=6;strokeWidth=1;sketch=0;exitX=0.5;exitY=1;exitDx=0;exitDy=0;" edge="1" parent="1">
          <mxGeometry relative="1" as="geometry">
            <mxPoint x="280" y="280" as="sourcePoint" />
            <mxPoint x="280" y="315" as="targetPoint" />
          </mxGeometry>
        </mxCell>
        <mxCell id="D7EhTNVWj45SHCvEhxK5-43" value="APIs" style="rounded=0;orthogonalLoop=1;jettySize=auto;html=1;endArrow=oval;endFill=0;sketch=0;sourcePerimeterSpacing=0;targetPerimeterSpacing=0;endSize=10;exitX=0.5;exitY=0;exitDx=0;exitDy=0;align=left;" edge="1" parent="1">
          <mxGeometry relative="1" as="geometry">
            <mxPoint x="280" y="340" as="sourcePoint" />
            <mxPoint x="280" y="315" as="targetPoint" />
          </mxGeometry>
        </mxCell>
        <mxCell id="D7EhTNVWj45SHCvEhxK5-45" value="" style="endArrow=none;dashed=1;html=1;rounded=0;entryX=0.75;entryY=0;entryDx=0;entryDy=0;exitX=0.75;exitY=1;exitDx=0;exitDy=0;" edge="1" parent="1" source="D7EhTNVWj45SHCvEhxK5-6" target="D7EhTNVWj45SHCvEhxK5-6">
          <mxGeometry width="50" height="50" relative="1" as="geometry">
            <mxPoint x="390" y="350" as="sourcePoint" />
            <mxPoint x="440" y="300" as="targetPoint" />
          </mxGeometry>
        </mxCell>
      </root>
    </mxGraphModel>
  </diagram>
</mxfile>
